<?xml version="1.0" standalone="no"?>
<!DOCTYPE svg PUBLIC "-//W3C//DTD SVG 20010904//EN"
 "http://www.w3.org/TR/2001/REC-SVG-20010904/DTD/svg10.dtd">
<svg version="1.0" xmlns="http://www.w3.org/2000/svg"
 width="54.000000pt" height="56.000000pt" viewBox="0 0 54.000000 56.000000"
 preserveAspectRatio="xMidYMid meet">
<metadata>
Created by potrace 1.16, written by Peter Selinger 2001-2019
</metadata>
<g transform="translate(0.000000,56.000000) scale(0.100000,-0.100000)"
fill="#000000" stroke="none">
<path d="M308 479 c6 -7 12 -22 12 -32 0 -14 -4 -17 -17 -12 -31 13 -140 18
-159 7 -15 -9 -7 -11 36 -9 65 2 130 -10 130 -23 0 -6 -45 -32 -100 -60 -55
-28 -100 -46 -100 -40 0 5 -7 7 -16 3 -8 -3 -13 -12 -10 -19 3 -7 1 -16 -4
-19 -6 -4 -10 -21 -10 -38 0 -23 3 -28 9 -18 7 11 11 5 16 -23 5 -25 18 -45
41 -63 19 -14 31 -30 27 -36 -4 -7 0 -8 11 -4 10 4 35 3 56 -3 25 -7 53 -7 81
-1 39 9 41 8 25 -7 -13 -13 -33 -16 -91 -14 -45 1 -75 -2 -75 -8 0 -6 36 -10
90 -10 65 0 90 3 90 13 0 6 22 35 49 62 49 51 81 102 81 129 0 9 -10 37 -22
62 -17 35 -20 48 -10 51 6 3 10 9 6 14 -3 5 -13 5 -24 -1 -24 -13 -35 3 -32
45 l1 30 -12 -28 c-11 -23 -15 -25 -29 -15 -9 7 -18 25 -22 39 -3 15 -14 30
-23 33 -15 6 -16 5 -5 -5z m49 -87 c15 -9 -45 -119 -103 -189 -33 -40 -74 -58
-74 -32 0 5 -3 8 -8 6 -4 -3 -19 11 -33 31 -39 54 -27 73 80 126 49 25 92 50
96 56 7 12 25 13 42 2z m39 -113 c-3 -43 -9 -85 -12 -93 -6 -16 -83 -51 -99
-46 -5 1 -18 2 -28 2 -14 -1 -15 3 -6 21 36 68 133 206 142 200 6 -3 7 -35 3
-84z m38 4 c-8 -41 -14 -41 -14 1 0 20 4 35 9 31 5 -3 7 -18 5 -32z"/>
</g>
</svg>
